# Max2Obj Version 4.0 Mar 10th, 2001
#
mtllib ./map_surface.mtl
g
# object Rectangle19 to come ...
#
v  -1207.991333 2147.215332 420.000000
v  -1295.094849 2147.215332 420.000000
v  -1295.094849 1740.349487 420.000000
v  -1207.991333 1740.349487 420.000000
v  -1208.043945 1588.704346 420.000000
v  -1295.094849 1588.704346 420.000000
v  -1295.094849 659.813354 420.000000
v  -1208.043945 659.813354 420.000000
v  -1139.607910 659.813354 420.000000
v  -1466.864502 659.813354 420.000000
v  -1466.864502 454.586914 420.000000
v  -1139.607910 454.586914 420.000000
v  -1110.073120 2305.180176 419.999969
v  -1110.073120 2488.769287 419.999969
v  -1312.411133 2305.180176 419.999969
v  -1312.411133 2488.769287 419.999969
v  -1110.073120 2697.696777 419.999969
v  -1110.073120 3128.760010 419.999969
v  -1312.411133 2697.696777 419.999969
v  -1312.411133 3128.760010 419.999969
v  -1110.073120 3128.760010 420.000000
v  -974.276184 3262.900146 420.000000
v  -974.276184 3465.227783 420.000000
v  -1211.988525 3465.227783 420.000000
v  -1317.638550 3343.070068 420.000000
v  -1317.638550 3125.166992 420.000000
v  -974.276184 3262.900146 419.999969
v  -543.915710 3262.899902 419.999969
v  -974.276123 3465.238281 419.999969
v  -543.915649 3465.238037 419.999969
v  -543.915649 3465.238037 419.999969
v  -543.915588 3635.604736 419.999969
v  -746.253662 3465.238037 419.999969
v  -746.253601 3635.604736 419.999969
v  -543.915649 3872.417236 419.999969
v  -543.915588 4078.473389 419.999969
v  -746.253662 3872.417236 419.999969
v  -746.253601 4078.473389 419.999969
v  -741.510681 4379.975586 506.843048
v  -543.915833 4379.975586 506.843048
v  -543.915710 5139.083984 506.843079
v  -741.510498 5139.083984 506.843079
v  -741.510620 4973.403320 506.843018
v  -939.105225 4973.403320 506.843018
v  -939.105225 4562.542969 506.843018
v  -741.510620 4562.542969 506.843018
v  -1110.073120 1848.357666 190.664749
v  -1110.073120 1947.977051 190.664764
v  -1259.073120 1848.357666 190.664749
v  -1259.073120 1947.977051 190.664749
v  -1110.073242 1947.976929 305.332367
v  -1110.073242 2047.596191 305.332367
v  -1259.073242 1947.976929 305.332336
v  -1259.073242 2047.596191 305.332367
v  -1110.073242 2047.596191 419.999969
v  -1110.073242 2147.215332 419.999969
v  -1259.073242 2047.596191 419.999969
v  -1259.073242 2147.215332 419.999969
v  -717.363586 2187.441650 69.889221
v  -717.363586 2273.304443 69.889221
v  -677.744812 2273.304443 69.889214
v  -677.744812 2583.651123 69.889214
v  -593.555054 2689.301514 69.889206
v  -36.191040 2689.301514 69.889114
v  -36.191040 3468.363525 69.889114
v  -544.022095 3468.363525 69.889198
v  -543.915710 3262.718506 69.889198
v  -974.276184 3262.718750 69.889259
v  -1110.073120 3128.578613 69.889282
v  -1110.073120 2697.515381 69.889282
v  -1206.304932 2697.515381 69.889297
v  -1206.304932 2488.587891 69.889297
v  -1110.073120 2488.587891 69.889282
v  -1110.073120 2305.131348 69.889282
v  -1207.542847 2305.131348 69.889297
v  -1207.542847 2187.441650 69.889297
v  -195.067139 -772.781982 69.889145
v  -195.067139 142.738037 69.889145
v  -251.994629 142.676514 69.889153
v  -251.994629 230.127197 69.889153
v  -195.067139 230.047607 69.889145
v  -207.352783 564.696533 69.889145
v  -278.784912 661.424683 69.889153
v  -593.562622 660.869141 69.889206
v  -668.689453 736.557251 69.889214
v  -668.689453 1168.949707 69.889214
v  -720.933350 1168.949707 69.889221
v  -720.933350 1253.449829 69.889221
v  -663.937317 1253.449829 69.889214
v  -663.937317 2187.441650 69.889214
v  -1211.549683 2187.441650 69.889297
v  -1211.367310 2147.033936 69.889297
v  -1110.073120 2147.033936 69.889282
v  -1110.073120 1848.176270 69.889282
v  -1207.991333 1848.176270 69.889297
v  -1207.991333 1740.168091 69.889297
v  -1295.094849 1740.168091 69.889305
v  -1295.094849 1588.522949 69.889305
v  -1208.128418 1588.522949 69.889297
v  -1208.128418 659.631836 69.889297
v  -1139.607788 659.631836 69.889282
v  -1139.628296 440.033936 69.889282
v  -1138.874023 230.047607 69.889282
v  -1082.924072 150.859619 69.889275
v  -860.473877 142.738037 69.889244
v  -797.037842 48.310791 69.889236
v  -797.037842 -772.781982 69.889236
v  -75.606567 3468.344971 69.889122
v  -75.606567 3551.302490 69.889122
v  -28.915527 3551.302490 69.889114
v  -28.915527 4393.391602 69.889114
v  -79.037354 4393.391602 69.889122
v  -79.037354 4476.251953 69.889122
v  -26.709595 4476.251953 69.889114
v  -26.709595 5341.694336 69.889114
v  -543.915833 5341.694336 69.889198
v  -543.915833 4379.793945 69.889198
v  -741.510681 4379.793945 69.889221
v  -746.253601 4078.291992 69.889229
v  -543.915588 4078.291992 69.889198
v  -543.915649 3872.235840 69.889198
v  -746.253662 3872.235840 69.889229
v  -746.253601 3635.423340 69.889229
v  -543.915588 3635.423340 69.889198
v  -543.915649 3468.363525 69.889198
v  -26.709595 5341.694336 69.889114
v  -543.915833 5341.694336 69.889198
v  -459.163635 1742.433838 1.011147
v  -663.921326 1742.433838 69.778694
v  -663.921326 1593.434082 69.778694
v  -459.163635 1593.434082 1.011147
v  9.706665 0.000000 1.098602
v  -195.050903 0.000000 69.866150
v  -195.050903 -148.999756 69.866150
v  9.706665 -148.999756 1.098602
# 135 vertices

vt  0.999501 0.999500 0.999500
vt  0.000501 0.999501 0.999500
vt  0.000499 0.000500 0.999500
vt  0.999499 0.000499 0.999500
vt  0.998896 -0.371844 0.999500
vt  0.000499 -0.371843 0.999500
vt  0.000496 -2.652602 0.999500
vt  0.998893 -2.652603 0.999500
vt  1.783794 -2.652603 0.999500
vt  -1.969549 -2.652602 0.999500
vt  -1.969550 -3.156507 0.999500
vt  1.783794 -3.156507 0.999500
vt  2.122535 1.387361 0.999500
vt  2.122536 1.838138 0.999500
vt  -0.198102 1.387361 0.999500
vt  -0.198101 1.838138 0.999500
vt  2.122536 2.351129 0.999500
vt  2.122538 3.409543 0.999500
vt  -0.198100 2.351129 0.999500
vt  -0.198099 3.409544 0.999500
vt  2.122538 3.409543 0.999500
vt  3.680008 3.738905 0.999500
vt  3.680009 4.235692 0.999500
vt  0.953660 4.235692 0.999500
vt  -0.258052 3.935751 0.999500
vt  -0.258053 3.400721 0.999500
vt  3.680008 3.738905 0.999500
vt  8.615861 3.738905 0.999500
vt  3.680010 4.235717 0.999500
vt  8.615862 4.235717 0.999500
vt  8.615862 4.235717 0.999500
vt  8.615863 4.654028 0.999500
vt  6.295225 4.235717 0.999500
vt  6.295226 4.654028 0.999500
vt  8.615863 5.235487 0.999500
vt  8.615864 5.741429 0.999500
vt  6.295226 5.235487 0.999500
vt  6.295227 5.741429 0.999500
vt  6.349625 6.481724 1.206063
vt  8.615862 6.481724 1.206063
vt  8.615866 8.345608 1.206063
vt  6.349629 8.345608 1.206063
vt  6.349627 7.938801 1.206063
vt  4.083392 7.938802 1.206063
vt  4.083391 6.929993 1.206063
vt  6.349626 6.929993 1.206063
vt  0.749033 0.065960 0.115351
vt  0.749033 0.355320 0.115351
vt  0.250967 0.355321 0.115351
vt  0.250966 0.065960 0.115351
vt  0.749033 0.355320 0.884163
vt  0.749033 0.644680 0.884163
vt  0.250967 0.644680 0.884163
vt  0.250967 0.355320 0.884163
vt  0.749033 0.644680 1.652975
vt  0.749033 0.934040 1.652975
vt  0.250967 0.934040 1.652975
vt  0.250967 0.644680 1.652975
vt  0.355698 0.000000 0.000000
vt  0.446659 0.000000 0.000000
vt  0.355698 1.000000 0.000000
vt  0.446659 1.000000 0.000000
vt  0.455486 0.484134 0.000000
vt  0.455486 0.498176 0.000000
vt  0.486721 0.498176 0.000000
vt  0.486721 0.548932 0.000000
vt  0.553097 0.566211 0.000000
vt  0.992525 0.566211 0.000000
vt  0.992525 0.693624 0.000000
vt  0.592149 0.693624 0.000000
vt  0.592233 0.659991 0.000000
vt  0.252935 0.659991 0.000000
vt  0.145872 0.638053 0.000000
vt  0.145872 0.567554 0.000000
vt  0.070002 0.567554 0.000000
vt  0.070002 0.533385 0.000000
vt  0.145872 0.533385 0.000000
vt  0.145872 0.503381 0.000000
vt  0.069026 0.503381 0.000000
vt  0.069026 0.484134 0.000000
vt  0.867266 0.000000 0.000000
vt  0.867266 0.149730 0.000000
vt  0.822384 0.149720 0.000000
vt  0.822384 0.164022 0.000000
vt  0.867266 0.164009 0.000000
vt  0.857580 0.218740 0.000000
vt  0.801263 0.234559 0.000000
vt  0.553091 0.234468 0.000000
vt  0.493861 0.246847 0.000000
vt  0.493861 0.317563 0.000000
vt  0.452671 0.317563 0.000000
vt  0.452671 0.331383 0.000000
vt  0.497607 0.331383 0.000000
vt  0.497607 0.484134 0.000000
vt  0.065867 0.484134 0.000000
vt  0.066011 0.477525 0.000000
vt  0.145872 0.477525 0.000000
vt  0.145872 0.428648 0.000000
vt  0.068673 0.428648 0.000000
vt  0.068673 0.410984 0.000000
vt  0.000000 0.410984 0.000000
vt  0.000000 0.386183 0.000000
vt  0.068565 0.386183 0.000000
vt  0.068565 0.234266 0.000000
vt  0.122587 0.234266 0.000000
vt  0.122570 0.198352 0.000000
vt  0.123165 0.164009 0.000000
vt  0.167276 0.151058 0.000000
vt  0.342657 0.149730 0.000000
vt  0.392670 0.134287 0.000000
vt  0.392670 0.000000 0.000000
vt  0.961449 0.693621 0.000000
vt  0.961449 0.707188 0.000000
vt  0.998261 0.707188 0.000000
vt  0.998261 0.844909 0.000000
vt  0.958745 0.844909 0.000000
vt  0.958745 0.858460 0.000000
vt  1.000000 0.858460 0.000000
vt  1.000000 1.000000 0.000000
vt  0.592233 1.000000 0.000000
vt  0.592233 0.842685 0.000000
vt  0.436448 0.842685 0.000000
vt  0.432709 0.793375 0.000000
vt  0.592233 0.793375 0.000000
vt  0.592233 0.759676 0.000000
vt  0.432709 0.759676 0.000000
vt  0.432709 0.720946 0.000000
vt  0.592233 0.720946 0.000000
vt  0.592233 0.693624 0.000000
vt  102.378845 74.499878 -68.767548
vt  -102.378845 74.499878 0.000000
vt  -102.378845 -74.499878 0.000000
vt  102.378845 -74.499878 -68.767548
vt  102.378845 74.499878 -68.767548
vt  -102.378845 74.499878 0.000000
vt  -102.378845 -74.499878 0.000000
vt  102.378845 -74.499878 -68.767548
# 137 texture vertices

vn  0.000000 0.000000 1.000000
vn  0.000000 0.000000 1.000000
vn  0.000000 0.000000 1.000000
vn  0.000000 0.000000 1.000000
vn  0.000000 0.000000 1.000000
vn  0.000000 0.000000 1.000000
vn  0.000000 0.000000 1.000000
vn  0.000000 0.000000 1.000000
vn  0.000000 0.000000 1.000000
vn  0.000000 0.000000 1.000000
vn  0.000000 0.000000 1.000000
vn  0.000000 0.000000 1.000000
vn  0.000000 0.000000 1.000000
vn  0.000000 0.000000 1.000000
vn  0.000000 0.000000 1.000000
vn  0.000000 0.000000 1.000000
vn  0.000000 0.000000 1.000000
vn  0.000000 0.000000 1.000000
vn  0.000000 0.000000 1.000000
vn  0.000000 0.000000 1.000000
vn  0.000000 0.000000 1.000000
vn  0.000000 0.000000 1.000000
vn  0.000000 0.000000 1.000000
vn  0.000000 0.000000 1.000000
vn  0.000000 0.000000 1.000000
vn  0.000000 0.000000 1.000000
vn  0.000000 0.000000 1.000000
vn  0.000000 0.000000 1.000000
vn  0.000000 0.000000 1.000000
vn  0.000000 0.000000 1.000000
vn  0.000000 0.000000 1.000000
vn  0.000000 0.000000 1.000000
vn  0.000000 0.000000 1.000000
vn  0.000000 0.000000 1.000000
vn  0.000000 0.000000 1.000000
vn  0.000000 0.000000 1.000000
vn  0.000000 0.000000 1.000000
vn  0.000000 0.000000 1.000000
vn  0.000000 -0.000000 1.000000
vn  0.000000 -0.000000 1.000000
vn  0.000000 -0.000000 1.000000
vn  0.000000 -0.000000 1.000000
vn  0.000000 0.000000 1.000000
vn  0.000000 0.000000 1.000000
vn  0.000000 0.000000 1.000000
vn  0.000000 0.000000 1.000000
vn  -0.000000 -0.000000 1.000000
vn  -0.000000 -0.000000 1.000000
vn  0.000000 0.000000 1.000000
vn  -0.000000 -0.000000 1.000000
vn  -0.000000 -0.000000 1.000000
vn  0.000000 0.000000 1.000000
vn  -0.000000 -0.000000 1.000000
vn  -0.000000 -0.000000 1.000000
vn  0.000000 0.000000 1.000000
vn  0.000000 0.000000 1.000000
vn  0.000000 0.000000 1.000000
vn  0.000000 0.000000 1.000000
vn  0.000000 0.000000 1.000000
vn  0.000000 0.000000 1.000000
vn  0.000000 0.000000 1.000000
vn  0.000000 -0.000000 1.000000
vn  0.000000 -0.000000 1.000000
vn  0.000000 -0.000000 1.000000
vn  0.000000 0.000000 1.000000
vn  0.000000 0.000000 1.000000
vn  0.000000 0.000000 1.000000
vn  0.000000 0.000000 1.000000
vn  0.000000 0.000000 1.000000
vn  0.000000 -0.000000 1.000000
vn  0.000000 0.000000 1.000000
vn  0.000000 0.000000 1.000000
vn  0.000000 0.000000 1.000000
vn  0.000000 0.000000 1.000000
vn  0.000000 0.000000 1.000000
vn  0.000000 0.000000 1.000000
vn  0.000000 0.000000 1.000000
vn  0.000000 0.000000 1.000000
vn  0.000000 0.000000 1.000000
vn  0.000000 0.000000 1.000000
vn  0.000000 0.000000 1.000000
vn  0.000000 0.000000 1.000000
vn  0.000000 0.000000 1.000000
vn  0.000000 0.000000 1.000000
vn  0.000000 0.000000 1.000000
vn  0.000000 0.000000 1.000000
vn  0.000000 -0.000000 1.000000
vn  0.000000 -0.000000 1.000000
vn  0.000000 -0.000000 1.000000
vn  0.000000 0.000000 1.000000
vn  0.000000 0.000000 1.000000
vn  0.000000 0.000000 1.000000
vn  0.000000 0.000000 1.000000
vn  0.000000 -0.000000 1.000000
vn  0.000000 0.000000 1.000000
vn  0.000000 -0.000000 1.000000
vn  0.000000 -0.000000 1.000000
vn  0.000000 0.000000 1.000000
vn  0.000000 -0.000000 1.000000
vn  0.000000 0.000000 1.000000
vn  0.000000 -0.000000 1.000000
vn  0.000000 0.000000 1.000000
vn  0.000000 0.000000 1.000000
vn  0.000000 0.000000 1.000000
vn  0.000000 0.000000 1.000000
vn  0.000000 0.000000 1.000000
vn  0.000000 0.000000 1.000000
vn  0.000000 0.000000 1.000000
vn  0.000000 0.000000 1.000000
vn  0.000000 0.000000 1.000000
vn  0.000000 0.000000 1.000000
vn  0.000000 0.000000 1.000000
vn  0.000000 -0.000000 1.000000
vn  0.000000 0.000000 1.000000
vn  0.000000 0.000000 0.000000
vn  0.000000 0.000000 0.000000
vn  0.000000 -0.000000 1.000000
vn  0.000000 0.000000 1.000000
vn  0.000000 0.000000 1.000000
vn  0.000000 0.000000 1.000000
vn  0.000000 0.000000 1.000000
vn  0.000000 0.000000 1.000000
vn  0.000000 0.000000 1.000000
vn  0.000000 0.000000 1.000000
vn  0.000000 -0.000000 1.000000
vn  1.000000 0.000000 0.000000
vn  1.000000 0.000000 0.000000
vn  0.318373 0.000000 0.947966
vn  0.318373 0.000000 0.947966
vn  0.318373 0.000000 0.947966
vn  0.318373 0.000000 0.947966
vn  0.318373 0.000000 0.947966
vn  0.318373 0.000000 0.947966
vn  0.318373 0.000000 0.947966
vn  0.318373 0.000000 0.947966
# 135 vertex normals

g Rectangle19
usemtl 13_-_Default
s 16
f 1/1/1 2/2/2 3/3/3
f 3/3/3 4/4/4 1/1/1
f 5/5/5 6/6/6 7/7/7
f 7/7/7 8/8/8 5/5/5
f 9/9/9 10/10/10 11/11/11
f 11/11/11 12/12/12 9/9/9
s 1
f 16/16/16 15/15/15 13/13/13
f 13/13/13 14/14/14 16/16/16
f 20/20/20 19/19/19 17/17/17
f 17/17/17 18/18/18 20/20/20
s 16
f 25/25/25 26/26/26 21/21/21
f 25/25/25 21/21/21 22/22/22
f 22/22/22 23/23/23 24/24/24
f 25/25/25 22/22/22 24/24/24
s 1
f 30/30/30 29/29/29 27/27/27
f 27/27/27 28/28/28 30/30/30
f 34/34/34 33/33/33 31/31/31
f 31/31/31 32/32/32 34/34/34
f 38/38/38 37/37/37 35/35/35
f 35/35/35 36/36/36 38/38/38
s 16
f 39/39/39 40/40/40 41/41/41
f 41/41/41 42/42/42 39/39/39
s 1
f 43/43/43 44/44/44 45/45/45
f 45/45/45 46/46/46 43/43/43
f 50/49/50 49/50/49 47/47/47
f 47/47/47 48/48/48 50/49/50
f 54/53/54 53/54/53 51/51/51
f 51/51/51 52/52/52 54/53/54
f 58/57/58 57/58/57 55/55/55
f 55/55/55 56/56/56 58/57/58
usemtl 09_-_Default
s 4
f 127/62/127 115/59/115 126/61/126
f 115/59/115 127/62/127 116/60/116
s 16
f 67/71/67 65/69/65 66/70/66
f 67/71/67 64/68/64 65/69/65
f 67/71/67 63/67/63 64/68/64
f 68/72/68 63/67/63 67/71/67
f 69/73/69 63/67/63 68/72/68
f 70/74/70 63/67/63 69/73/69
f 70/74/70 62/66/62 63/67/63
f 59/63/59 75/79/75 76/80/76
f 59/63/59 74/78/74 75/79/75
f 60/64/60 74/78/74 59/63/59
f 60/64/60 73/77/73 74/78/74
f 61/65/61 73/77/73 60/64/60
f 62/66/62 73/77/73 61/65/61
f 70/74/70 73/77/73 62/66/62
f 71/75/71 73/77/73 70/74/70
f 71/75/71 72/76/72 73/77/73
f 105/109/105 103/107/103 104/108/104
f 105/109/105 102/106/102 103/107/103
f 101/105/101 99/103/99 100/104/100
f 99/103/99 97/101/97 98/102/98
f 99/103/99 96/100/96 97/101/97
f 96/100/96 94/98/94 95/99/95
f 92/96/92 90/94/90 91/95/91
f 93/97/93 90/94/90 92/96/92
f 93/97/93 89/93/89 90/94/90
f 94/98/94 89/93/89 93/97/93
f 94/98/94 88/92/88 89/93/89
f 96/100/96 88/92/88 94/98/94
f 99/103/99 88/92/88 96/100/96
f 101/105/101 88/92/88 99/103/99
f 101/105/101 87/91/87 88/92/88
f 87/91/87 85/89/85 86/90/86
f 101/105/101 85/89/85 87/91/87
f 102/106/102 85/89/85 101/105/101
f 102/106/102 84/88/84 85/89/85
f 105/109/105 84/88/84 102/106/102
f 105/109/105 83/87/83 84/88/84
f 105/109/105 82/86/82 83/87/83
f 82/86/82 80/84/80 81/85/81
f 105/109/105 80/84/80 82/86/82
f 106/110/106 80/84/80 105/109/105
f 106/110/106 79/83/79 80/84/80
f 107/111/107 79/83/79 106/110/106
f 77/81/77 79/83/79 107/111/107
f 77/81/77 78/82/78 79/83/79
f 109/113/109 125/129/125 108/112/108
f 109/113/109 124/128/124 125/129/125
f 123/127/123 121/125/121 122/126/122
f 124/128/124 121/125/121 123/127/123
f 120/124/120 118/122/118 119/123/119
f 120/124/120 117/121/117 118/122/118
f 117/121/117 115/119/115 116/120/116
f 115/119/115 113/117/113 114/118/114
f 117/121/117 113/117/113 115/119/115
f 117/121/117 112/116/112 113/117/113
f 120/124/120 112/116/112 117/121/117
f 121/125/121 112/116/112 120/124/120
f 124/128/124 112/116/112 121/125/121
f 109/113/109 112/116/112 124/128/124
f 110/114/110 112/116/112 109/113/109
f 110/114/110 111/115/111 112/116/112
s 1
f 130/132/130 131/133/131 128/130/128
f 130/132/130 128/130/128 129/131/129
f 134/136/134 135/137/135 132/134/132
f 134/136/134 132/134/132 133/135/133
# 97 faces

g